<?xml version="1.0" encoding="UTF-8"?>
<svg xmlns="http://www.w3.org/2000/svg" viewBox="41.87 -6.00 151.28 160.27">
  <defs>
    <style>
      .cls-1 { fill-rule: evenodd; fill: #141414; }
    </style>
  </defs>
  <g>
      <path class="cls-1" d="M120.77,79.52c-3.67,6.45-17.07,21.29-22.34,23.39-1.41-10.75-5.42-26.74-22.34-23.39-3.1.61-6.88,3.09-8.23,5.84-1.51,3.09-1.63,5.93-1.18,9.36.77,5.76,3.75,7.19,7.06,12.86-15.88-1.26-25.62-9.04-25.87-23.38-.3-17.72,17.33-32.69,34.09-26.9,2.85.99,4.42,2.34,5.88,3.51,3.71,2.99,17.12,16.86,15.28,32.74,5.28-4.67,4.99-11.88,4.7-17.54-.62-12.15-8.29-25.18-8.23-37.42.07-16.5,7.74-27.19,16.45-38.59,0,0,18.07,19.66,17.37,37.49-.65,16.38-5.56,30.14-12.67,42.03"/>
      <path class="cls-1" d="M147.08,60.57c7.13-3.88,10.91-4.89,16.29-4.89,4.72,0,10,.99,13.46,3.01,3.11,1.81,5.21,3.53,8.01,9.05,2.23,4.42,2.8,14.79,1.89,18.74-.34,1.49-.5,3.62-4.22,9.62-2.23,3.6-5.7,6.75-8.85,7.98-1.91.76-6.22,2.41-13.84,3.5,4.25-4.96,3.76-3.99,4.98-5.82,1.93-2.92,3.09-4.24,2.98-9.36-.12-5.92-4.15-11.45-8.23-12.86-17.06-5.91-37.77,12.84-36.44,29.23.43,5.3,3.09,9.74,8.23,15.2-4.07,7.09-3.79,6.53-9.3,13.74-1.47,1.93-5.58,6.28-10.57,10.56-4.92-16.63-.48-37.79,8.12-54.7,5.49-10.81,14.64-26.02,27.04-32.74"/>
      <path class="cls-1" d="M129.69,87.97c-2.01,2.39,2.87,7.42,10.62,6.46,4.22-.52,6.09-2.61,4.65-.95-1.45,1.68-6.1,7.3-10.98,8.4-6.65,1.51-11.7.27-13.12-2.03"/>
  </g>
</svg>
